<svg xmlns="http://www.w3.org/2000/svg" xmlns:xlink="http://www.w3.org/1999/xlink" version="1.1" x="0px" y="0px" viewBox="0 0 1280 1000" enable-background="new 0 0 1280 800" xml:space="preserve"><path d="M902.2,208.1H600c-0.7-25.9-22-46.7-48.1-46.7h-71.1c-26.1,0-47.4,20.8-48.1,46.7h-42.9c-26.6,0-48.2,21.6-48.2,48.2V553  c0,26.6,21.6,48.2,48.2,48.2h512.5c26.6,0,48.2-21.6,48.2-48.2V256.3C950.4,229.7,928.8,208.1,902.2,208.1z M480.7,186.6h71.1  c12.2,0,22.2,9.5,22.9,21.6H457.8C458.6,196.1,468.6,186.6,480.7,186.6z M925.2,553c0,12.7-10.3,23-23,23H389.7  c-12.7,0-23-10.3-23-23V256.3c0-12.7,10.3-23,23-23h512.5c12.7,0,23,10.3,23,23V553z"/><path fill="none" stroke="#000000" stroke-width="3" stroke-linecap="round" stroke-miterlimit="10" d="M555.9,382.6"/><path d="M646,547.6c-80.3,0-145.7-65.4-145.7-145.7S565.6,256.2,646,256.2s145.7,65.4,145.7,145.7S726.3,547.6,646,547.6z   M646,281.4c-66.4,0-120.5,54.1-120.5,120.5S579.5,522.4,646,522.4s120.5-54.1,120.5-120.5S712.4,281.4,646,281.4z"/><path d="M594.6,378.6c0-6.2,3.5-9.9,9.2-9.9c5.7,0,9.2,3.8,9.2,9.9v39.8c0,6.2-3.5,9.9-9.2,9.9c-5.7,0-9.2-3.8-9.2-9.9V405h-18v13.4  c0,6.2-3.5,9.9-9.2,9.9c-5.7,0-9.2-3.8-9.2-9.9v-39.8c0-6.2,3.5-9.9,9.2-9.9c5.7,0,9.2,3.8,9.2,9.9v10.9h18V378.6z"/><path d="M624.4,380.6c0-7.7,3.4-11,10.5-11h15.6c19.1,0,27.6,12.8,27.6,28.8c0,16-8.5,28.8-27.6,28.8h-15.6c-7.1,0-10.5-3.3-10.5-11  V380.6z M646.4,412.9c10.6,0,13.3-5.3,13.3-14.4c0-9.1-2.7-14.4-13.3-14.4h-4.1v28.8L646.4,412.9L646.4,412.9z"/><path d="M686.6,380.6c0-7.7,3.4-11,11.3-11h20.4c14.1,0,20.4,7.5,20.4,16.3c0,7.5-4.6,12.4-11.7,13.8v0.2c5.8,0.4,9.8,2.4,10.6,8.5  l0.6,4.8c0.4,2.7,0.8,5.7,0.8,8.1c0,4.4-4.3,7-8.2,7c-5.4,0-9.5-2.2-10.2-7.9l-0.9-7.6c-0.6-4.6-3.8-6-8.1-6h-7.2v11.9  c0,6.2-3.2,9.6-9,9.6c-5.8,0-9-3.4-9-9.6L686.6,380.6L686.6,380.6z M713.8,394.8c5.4,0,7.5-1.7,7.5-5.6s-2.2-5.6-7.5-5.6h-9.2v11.2  L713.8,394.8L713.8,394.8z"/><text x="0" y="815" fill="#000000" font-size="5px" font-weight="bold" font-family="'Helvetica Neue', Helvetica, Arial-Unicode, Arial, Sans-serif">Created by Callum Taylor</text><text x="0" y="820" fill="#000000" font-size="5px" font-weight="bold" font-family="'Helvetica Neue', Helvetica, Arial-Unicode, Arial, Sans-serif">from the Noun Project</text></svg>